<svg width="64" height="64" viewBox="0 0 64 64" fill="none" xmlns="http://www.w3.org/2000/svg">
<path d="M19.9525 31.8171C19.9525 36.3279 16.4247 39.985 12.073 39.985C7.7217 39.985 4.19391 36.3279 4.19391 31.8171C4.19391 27.3058 7.7217 23.6492 12.073 23.6492C16.4248 23.6492 19.9525 27.3058 19.9525 31.8171Z" fill="#0060AF"/>
<path d="M15.0361 42.1492H9.1774C4.93468 42.1492 1.36552 45.4303 0.894361 49.8287L0.0187619 56.8795C-0.116056 57.7872 0.490389 58.6248 1.3655 58.8342C4.73263 59.6021 8.3689 59.9513 12.0729 59.9513C13.6216 59.9513 15.1032 59.8817 16.5176 59.7419L17.2584 53.4591C17.6624 50.178 19.2111 47.3857 21.5011 45.4311C20.0196 43.4063 17.5952 42.1494 15.036 42.1494L15.0361 42.1492Z" fill="#0060AF"/>
<path d="M59.819 31.8171C59.819 36.3279 56.2912 39.985 51.9399 39.985C47.5882 39.985 44.0605 36.3279 44.0605 31.8171C44.0605 27.3058 47.5883 23.6492 51.9399 23.6492C56.2912 23.6492 59.819 27.3058 59.819 31.8171Z" fill="#0060AF"/>
<path d="M63.1859 49.8284C62.7143 45.4302 59.078 42.1489 54.9029 42.1489H49.0442C46.4178 42.1489 44.0607 43.4053 42.5119 45.4301C44.8015 47.3848 46.4178 50.177 46.7546 53.4581L47.4954 59.7409C48.9099 59.8806 50.4586 59.9503 51.9402 59.9503C55.7113 59.9503 59.2804 59.5315 62.6476 58.8332C63.5232 58.6238 64.062 57.7862 63.9943 56.8785L63.1859 49.8284Z" fill="#0060AF"/>
<path d="M34.9018 46.2681H29.0431C24.8004 46.2681 21.2312 49.5492 20.7601 53.8774L19.9521 60.9282C19.8173 61.8359 20.4237 62.7432 21.2988 62.8829C24.666 63.6509 28.3022 64 32.0062 64C35.7773 64 39.3465 63.5812 42.7136 62.8829C43.5892 62.6735 44.128 61.8359 44.0603 60.9282L43.2524 53.8774C42.7136 49.5492 39.1445 46.2681 34.9017 46.2681H34.9018Z" fill="#0060AF"/>
<path d="M39.8855 35.936C39.8855 40.4473 36.3582 44.1039 32.0064 44.1039C27.6547 44.1039 24.1273 40.4473 24.1273 35.936C24.1273 31.4252 27.6547 27.7681 32.0064 27.7681C36.3582 27.7681 39.8855 31.4252 39.8855 35.936Z" fill="#0060AF"/>
<path d="M24.6657 14.5039C25.1374 14.9227 25.3393 15.621 25.2045 16.2492L23.9249 21.6945C23.5881 23.2303 25.2045 24.4171 26.484 23.5795L31.1308 20.6474C31.6696 20.2983 32.3427 20.2983 32.8816 20.6474L37.5284 23.5795C38.808 24.4171 40.4239 23.1607 40.0875 21.6945L38.8079 16.2492C38.6731 15.621 38.8751 14.9226 39.3467 14.5039L43.4546 10.8736C44.5994 9.82662 43.9934 7.87195 42.5118 7.80177L37.1243 7.31285C36.5183 7.24321 35.9123 6.82393 35.7098 6.26588L33.6223 1.09972C33.0164 -0.366572 31.0632 -0.366572 30.4572 1.09972L28.3697 6.19632C28.1006 6.82451 27.5618 7.24329 26.9553 7.24329L21.5677 7.7322C20.0862 7.87196 19.4802 9.82667 20.625 10.804L24.6657 14.5039Z" fill="#0060AF"/>
</svg>
