<svg width="64" height="64" viewBox="0 0 64 64" fill="none" xmlns="http://www.w3.org/2000/svg">
<path d="M50.8003 22.5286C49.0484 24.8851 46.8919 27.5778 45.0052 29.8667C44.129 31.0112 42.7814 31.617 41.2988 31.617C39.8835 31.617 38.5359 31.0112 37.6603 29.8667C37.5254 29.7319 37.3909 29.5976 37.3232 29.3952H37.1883L36.1101 28.9237C35.9079 28.8566 35.7058 28.8566 35.5709 28.9909L34.2233 29.9334C34.0884 30.0682 33.954 30.2701 34.0212 30.4049L34.2233 32.0208C34.2233 32.2227 34.1561 32.4923 33.954 32.5594L32.8757 33.0309C32.5387 33.1657 32.4715 33.6367 32.7408 33.9063L33.4821 34.6468C33.617 34.7816 33.8191 34.8488 33.954 34.7816L35.3016 34.4449H35.6386L36.245 34.714C36.4471 34.7812 36.919 35.1855 37.2556 35.4546C37.5249 35.6565 37.8619 35.5894 38.064 35.3198C38.1313 35.185 38.2662 35.1179 38.4683 35.1179L39.5466 34.9831C39.6815 34.9831 39.7487 34.9159 39.8159 34.8483L39.9508 34.7812C40.2201 34.5121 40.6921 34.6464 40.827 34.9831L41.3661 36.4642C41.3661 36.5314 41.4333 36.5314 41.4333 36.599L42.0397 37.4067C42.2418 37.6087 42.1746 37.9454 41.9725 38.1473L40.49 39.5613C40.2879 39.7633 39.9508 39.7633 39.7487 39.5613L38.3334 38.215C38.2662 38.1478 38.2662 38.1478 38.1985 38.1478L36.1768 37.2725C36.1096 37.2725 36.0419 37.2725 36.0419 37.2053L33.3467 36.9362H33.1446L30.0446 37.8116C29.8425 37.8788 29.7076 38.0135 29.7076 38.1483L28.6307 41.514C28.5635 41.6488 28.6307 41.7831 28.6307 41.9179L30.1805 45.2169C30.2477 45.4188 30.4498 45.4859 30.5847 45.5536L33.5498 45.8227C33.617 45.8227 33.6847 45.8227 33.7519 45.8898L34.8974 46.5632C35.0323 46.6304 35.1667 46.8323 35.1667 46.9671L35.4361 49.9966C35.4361 50.0637 35.4361 50.1313 35.5033 50.1985L36.9186 52.8912C36.9858 52.9583 36.9859 53.026 37.0535 53.0931L38.7382 54.3724C39.0075 54.5743 39.3445 54.5072 39.4794 54.2376L40.0858 53.3623C40.0858 53.3623 40.153 53.2951 40.153 53.2275L41.4339 50.1985V50.0637L41.8382 45.8222C41.8382 45.7551 41.8382 45.6875 41.9054 45.6203L42.7816 43.87C42.8488 43.6681 43.1186 43.5333 43.3207 43.5333L46.218 43.9372C46.3529 43.9372 46.555 43.87 46.69 43.8024L47.2291 43.1966C47.4312 42.9946 47.4312 42.7251 47.2963 42.5232L45.9487 40.7053C45.6794 40.3686 45.8815 39.9647 46.2857 39.8299L46.8249 39.6952C46.8921 39.6952 47.7683 39.628 47.9704 39.628H48.0376L49.3852 39.8299C49.6545 39.8971 49.8571 40.1667 49.8571 40.4358L49.5206 44.1396V44.4087L50.6661 47.5058C47.4989 54.5749 40.2885 59.5568 32.0003 59.5568C28.0919 59.5568 24.3856 58.4123 21.2184 56.5273L22.6337 49.9969C22.7009 49.7279 22.6337 49.4583 22.5665 49.2564L20.4099 44.6109C20.2078 44.207 19.8708 43.9375 19.4665 43.8703L14.7497 43.1969C13.8063 43.0621 13.4021 41.9176 14.0084 41.1771L14.3454 40.7732C14.6148 40.4365 15.0195 40.3017 15.4237 40.3693L17.6474 40.706H18.1194L21.1516 40.0326C21.2188 40.0326 21.3537 39.9655 21.4209 39.9655L23.3077 39.0901C23.6447 38.8882 23.9141 38.5515 23.9818 38.1476L24.723 32.5597C24.7902 32.0211 24.4537 31.4825 23.9818 31.2805L23.0379 30.6751C22.4988 30.4732 22.1618 29.8674 22.2966 29.3288C22.3639 28.7901 22.8358 28.3863 23.3749 28.3191L24.7903 28.1844C25.4643 28.1172 25.9358 27.5785 25.9358 26.9051L25.8685 25.1548L25.6664 21.7886C25.6664 21.3171 25.3294 20.8461 24.8579 20.7113L23.6452 20.2398C25.3971 19.4321 27.2838 18.8935 29.2382 18.6239C28.9689 18.2201 28.7663 17.8162 28.6319 17.5467C28.1599 16.537 27.7557 15.4597 27.4864 14.3824C15.8279 16.6046 7 26.77 7 39.0229C7 52.8242 18.2534 63.9999 32 63.9999C45.814 63.9999 57 52.7569 57 39.0229C57 32.6948 54.7085 26.972 50.8002 22.5286L50.8003 22.5286Z" fill="#0060AF"/>
<path d="M40.2207 27.8472C40.8271 28.5206 41.9054 28.5206 42.4445 27.8472C44.8027 25.0196 49.9243 18.5564 51.2718 16.0656C52.9565 12.9684 52.8892 9.3332 51.2718 6.10179C48.5089 0.648699 41.8381 -1.5731 36.3797 1.18729C30.9216 3.94768 28.765 10.8143 31.4606 16.0658C32.7411 18.5562 37.9299 25.0195 40.2209 27.847L40.2207 27.8472ZM41.3662 5.83238C44.2636 5.83238 46.6223 8.18894 46.6223 11.0836C46.6223 13.9783 44.2636 16.3349 41.3662 16.3349C38.4689 16.3349 36.1102 13.9783 36.1102 11.0836C36.1102 8.18894 38.4689 5.83238 41.3662 5.83238Z" fill="#0060AF"/>
</svg>
