<svg width="64" height="64" viewBox="0 0 64 64" fill="none" xmlns="http://www.w3.org/2000/svg">
<path d="M4.99383 42.7805C4.99383 42.7894 4.99487 42.7982 4.9954 42.807L6.03792 62.6724C6.06554 63.1988 6.49701 63.6133 7.02408 63.6199L36.5708 63.9884C37.0952 63.9949 37.5356 63.5951 37.5797 63.0725L38.2942 54.5964C38.3475 53.9671 38.8952 53.4948 39.5291 53.5317L50.2346 54.1547C50.8039 54.1878 51.2857 53.7388 51.2926 53.1685L51.4419 40.854C51.4508 40.219 51.9739 39.7108 52.6124 39.7171H59.3263C60.0828 39.7171 60.5654 38.9094 60.2069 38.2432L51.6697 22.3783C51.5788 22.2068 51.5312 22.0162 51.5312 21.8224C51.5312 16.101 48.9278 10.6391 44.2007 6.44826C39.5792 2.35121 33.4 0 27.2474 0C22.2187 0.0296175 17.3009 1.47409 13.0632 4.16609C8.84923 6.84931 5.70858 10.5768 4.21993 14.6635C4.20582 14.7025 4.18962 14.7404 4.17133 14.7773C2.07641 19.0458 3.24587 28.2173 4.18596 35.5878C4.51988 38.207 4.83601 40.6803 4.99383 42.7805ZM31.7717 20.9019C31.5522 20.6837 31.4289 20.3875 31.4289 20.0789C31.4289 19.7702 31.5522 19.4741 31.7717 19.2558C32.2289 18.8017 32.9704 18.8017 33.4271 19.2558L39.271 25.0666C39.4904 25.2848 39.6138 25.581 39.6138 25.8896C39.6138 26.1982 39.4905 26.4944 39.271 26.7126L33.4271 32.5233C32.9704 32.978 32.2289 32.978 31.7717 32.5239C31.3149 32.0692 31.3144 31.3319 31.7717 30.8778L36.7882 25.8902L31.7717 20.9019ZM29.1102 15.7896C29.3051 15.1769 29.9625 14.8371 30.5791 15.0309C31.1956 15.2248 31.5369 15.8784 31.342 16.4915L25.0452 36.2924C24.8503 36.9055 24.1929 37.2448 23.5768 37.051C22.9602 36.8572 22.6185 36.2035 22.8134 35.5904L29.1102 15.7896ZM14.9755 25.0664L20.8193 19.2557C21.2776 18.8099 22.0118 18.8141 22.4654 19.2651C22.9185 19.7161 22.9227 20.4461 22.4743 20.9018L17.4588 25.8894L22.4743 30.8776C22.9269 31.3327 22.9242 32.0659 22.4691 32.5185C22.0139 32.971 21.2766 32.9731 20.8188 32.5231L14.975 26.7124C14.7555 26.4942 14.6322 26.198 14.6322 25.8894C14.6322 25.5807 14.756 25.2846 14.9755 25.0664Z" fill="#0060AF"/>
</svg>
