<svg width="64" height="64" viewBox="0 0 64 64" fill="none" xmlns="http://www.w3.org/2000/svg">
<path d="M32 0C14.3616 0 0 14.3613 0 32C0 49.6512 14.3619 64 32 64C49.6512 64 64 49.6512 64 32C64 14.3616 49.6512 0 32 0ZM51.4176 23.3984L28.1728 46.656C27.6478 47.1679 26.9697 47.4366 26.2915 47.4366C25.6128 47.4366 24.9221 47.1679 24.4096 46.656L12.5827 34.8291C11.8265 34.0735 11.4171 33.0747 11.4171 31.9997C11.4171 30.9372 11.8396 29.9259 12.5946 29.1709C14.1558 27.6096 16.6909 27.6221 18.2395 29.1709L26.2139 37.1453H26.3421H26.3552L45.76 17.7533C47.3219 16.192 49.8563 16.192 51.4174 17.7402C52.1724 18.4952 52.5949 19.5064 52.5949 20.569C52.5949 21.6446 52.1731 22.6427 51.4174 23.3984L51.4176 23.3984Z" fill="#0060AF"/>
</svg>
